<svg xmlns="http://www.w3.org/2000/svg" width="32" height="32" viewBox="0 0 32 32" fill="none" stroke="currentColor" stroke-width="2.15" stroke-linecap="round" stroke-linejoin="round">
  <title>Reverse</title>
  <path d="M7.5 20.5 11 10l3.5 10.5zM17.5 20.5 21 10l3.5 10.5z"/>
  <path d="M9.35 18 11 13.2 12.65 18zM19.35 18 21 13.2 22.65 18z" fill="currentColor" stroke="none"/>
  <path d="M27 10.25A6.75 6.75 0 0 0 22 4.5l1.55-2.25M5 18.75a6.75 6.75 0 0 0 5 5.75L8.45 26.75"/>
  <path d="m21.7 4.45 3.7.45M10.3 24.55l-3.7-.45"/>
  <path d="m27.1 27.1 3.4-3.4v3.4z" fill="currentColor" stroke="none"/>
</svg>
