<svg xmlns="http://www.w3.org/2000/svg" width="32" height="32" viewBox="0 0 32 32" fill="none" stroke="currentColor" stroke-width="2.25" stroke-linecap="round" stroke-linejoin="round">
  <title>Magic wand</title>
  <path d="m12.4 25.6 12.7-12.7a2 2 0 0 0 0-2.8l-1.2-1.2a2 2 0 0 0-2.8 0L8.4 21.6a2 2 0 0 0 0 2.8l1.2 1.2a2 2 0 0 0 2.8 0ZM17.8 12.2l3.9 3.9"/>
  <path d="M8 3.5c.65 2.15 1.85 3.35 4 4-2.15.65-3.35 1.85-4 4-.65-2.15-1.85-3.35-4-4 2.15-.65 3.35-1.85 4-4ZM24.5 20.5c.45 1.45 1.3 2.3 2.75 2.75-1.45.45-2.3 1.3-2.75 2.75-.45-1.45-1.3-2.3-2.75-2.75 1.45-.45 2.3-1.3 2.75-2.75Z"/>
</svg>
