<svg xmlns="http://www.w3.org/2000/svg" width="32" height="32" viewBox="0 0 32 32">
  <title>AI eraser</title>
  <path fill="currentColor" fill-rule="evenodd" d="m6.1 24.45 14.2-14.2a3 3 0 0 1 4.25 0l1.2 1.2a3 3 0 0 1 0 4.25L11.55 29.9a2 2 0 0 1-2.8 0L6.1 27.25a2 2 0 0 1 0-2.8Zm14.15-10.7 2 2 2.3-2.3-2-2Z"/>
  <path fill="currentColor" d="M8 4c.7 2.5 2.25 4.05 4.75 4.75C10.25 9.45 8.7 11 8 13.5c-.7-2.5-2.25-4.05-4.75-4.75C5.75 8.05 7.3 6.5 8 4ZM25.5 20.5c.5 1.9 1.6 3 3.5 3.5-1.9.5-3 1.6-3.5 3.5-.5-1.9-1.6-3-3.5-3.5 1.9-.5 3-1.6 3.5-3.5Z"/>
</svg>
