<svg xmlns="http://www.w3.org/2000/svg" width="32" height="32" viewBox="0 0 32 32">
  <title>Video and audio</title>
  <defs>
    <mask id="play-cutout">
      <rect width="32" height="32" fill="#fff"/>
      <path d="m11.5 12 7 4.5-7 4.5Z" fill="#000"/>
    </mask>
  </defs>
  <path fill="currentColor" mask="url(#play-cutout)" d="M5.5 7h16A3.5 3.5 0 0 1 25 10.5V12h2.5a1.5 1.5 0 0 1 1.5 1.5v11A2.5 2.5 0 0 1 26.5 27h-21A2.5 2.5 0 0 1 3 24.5v-15A2.5 2.5 0 0 1 5.5 7Z"/>
  <g fill="currentColor">
    <rect x="22" y="3.5" width="2.5" height="6" rx="1.25"/>
    <rect x="26" y="2" width="2.5" height="9" rx="1.25"/>
    <rect x="30" y="4.5" width="2" height="4" rx="1"/>
  </g>
</svg>
